<?xml version='1.0' encoding='utf-8'?>
<svg xmlns="http://www.w3.org/2000/svg" id="Layer_1" data-name="Layer 1" viewBox="0 0 319.55 319.55"><defs><style>.cls-1{fill:#fff;stroke:#1d1d1b;stroke-width:15.22px;}.cls-1,.cls-3,.cls-5{stroke-miterlimit:10;}.cls-2{fill:#020303;}.cls-3,.cls-5{fill:none;}.cls-3{stroke:#020303;stroke-width:5px;}.cls-4{fill:#010101;}.cls-5{stroke:#010101;stroke-width:7px;}</style></defs><rect class="cls-1" x="7.61" y="7.61" width="304.33" height="304.33" rx="25.36"/><path class="cls-2" d="M80,126.36c-2.33,5.14-2,6.6-4,11.87L65.67,124.76c-1-1.37-3,.41-2,1.78l11.65,15.3a1.35,1.35,0,0,0,2.27-.45c2.27-6,2.24-8.27,4.9-14.16C83.2,125.66,80.67,124.8,80,126.36Z"/><rect class="cls-3" x="58.73" y="117" width="31.06" height="31.06" rx="12" transform="translate(-24.51 17.1) rotate(-11.29)"/><path class="cls-2" d="M88.44,168.84c-2.32,5.14-2,6.6-4,11.87L74.15,167.24c-1-1.37-3,.41-2,1.78L83.8,184.33a1.35,1.35,0,0,0,2.27-.46c2.27-6.05,2.24-8.27,4.91-14.16C91.69,168.14,89.15,167.28,88.44,168.84Z"/><rect class="cls-3" x="67.21" y="159.48" width="31.06" height="31.06" rx="12" transform="translate(-32.66 19.59) rotate(-11.29)"/><rect class="cls-3" x="75.69" y="201.97" width="31.06" height="31.06" rx="12" transform="translate(-40.82 22.07) rotate(-11.29)"/><rect class="cls-4" x="94.88" y="116.46" width="55.23" height="5.54" rx="2.77" transform="translate(-20.97 26.29) rotate(-11.29)"/><rect class="cls-4" x="96.73" y="125.74" width="55.23" height="5.54" rx="2.77" transform="translate(-22.75 26.83) rotate(-11.29)"/><rect class="cls-4" x="111.62" y="200.32" width="55.23" height="5.54" rx="2.77" transform="translate(-37.07 31.19) rotate(-11.29)"/><rect class="cls-4" x="113.47" y="209.6" width="55.23" height="5.54" rx="2.77" transform="translate(-38.85 31.73) rotate(-11.29)"/><path class="cls-4" d="M152.69,158.6,107,168.33a2.78,2.78,0,0,1-3.26-2.18h0a2.77,2.77,0,0,1,2.17-3.25l48.73-9.73a2.78,2.78,0,0,1,3.26,2.17h0C158.16,156.83,154.18,158.3,152.69,158.6Z"/><rect class="cls-4" x="105.06" y="167.94" width="45.35" height="5.54" rx="2.77" transform="translate(-30.95 28.31) rotate(-11.29)"/><path class="cls-4" d="M145.42,100.53q0-15.7,8.71-31.82A71.86,71.86,0,0,1,179.57,42q16.71-10.59,39-10.58,20.71,0,36.57,8.84a62.65,62.65,0,0,1,24.51,24,65.8,65.8,0,0,1,8.64,33.06q0,14.06-4.93,24.63a75.58,75.58,0,0,1-11.71,18.27q-6.8,7.68-24.37,25.87c-9.61,10.14-14.09,20.35-16.71,33.88-1,6.29-2.19,12.93-5.09,18.65-3.17,6.24-9,8.55-15.83,8.14C195.75,226,196,205.08,196,194.92q0-13.89,3.71-24A63,63,0,0,1,209.57,153a242.78,242.78,0,0,1,16.58-18.27q9.14-9.25,13.21-14a46.94,46.94,0,0,0,6.86-10.5A28.5,28.5,0,0,0,249,97.72a31.48,31.48,0,0,0-8.5-22.31q-8.5-9.09-21.93-9.1-15.72,0-23.15,9.18t-12.58,27Q178,121.2,164.42,121.19a17,17,0,0,1-13.5-6.52A21.53,21.53,0,0,1,145.42,100.53Zm88.89,161.58a23.81,23.81,0,0,1-5.12,15.21q-5.12,6.51-14.32,6.5a17.66,17.66,0,0,1-13.75-6.28,22.46,22.46,0,0,1-5.57-15.43A21.74,21.74,0,0,1,201.12,247a17.86,17.86,0,0,1,13.75-6.14q9.07,0,14.26,6.43A23,23,0,0,1,234.31,262.11Z"/><rect class="cls-5" x="58.83" y="98.88" width="112.87" height="143.46" transform="translate(-31.17 25.87) rotate(-11.29)"/></svg>